PathFileType	4	(X/Y/Z)	Kaydara	
DataRate	CameraRate	NumFrames	NumMarkers	Units	OrigDataRate	OrigDataStartFrame	OrigNumFrames	
240.00	240.00	4	72	mm	240.00	267	355	
Frame#	Time	Hips			RightUpLeg			RightLeg			RightFoot			RightFoot_End			LeftUpLeg			LeftLeg			LeftFoot			LeftFoot_End			Spine			Spine1			Spine2			Spine3			Neck			Head			Head_End			RightShoulder			RightArm			RightForeArm			RightHand			RightHandThumb1			RightHandThumb2			RightHandThumb3			RightHandThumb3_End			RightInHandIndex			RightHandIndex1			RightHandIndex2			RightHandIndex3			RightHandIndex3_End			RightInHandMiddle			RightHandMiddle1			RightHandMiddle2			RightHandMiddle3			RightHandMiddle3_End			RightInHandRing			RightHandRing1			RightHandRing2			RightHandRing3			RightHandRing3_End			RightInHandPinky			RightHandPinky1			RightHandPinky2			RightHandPinky3			RightHandPinky3_End			LeftShoulder			LeftArm			LeftForeArm			LeftHand			LeftHandThumb1			LeftHandThumb2			LeftHandThumb3			LeftHandThumb3_End			LeftInHandIndex			LeftHandIndex1			LeftHandIndex2			LeftHandIndex3			LeftHandIndex3_End			LeftInHandMiddle			LeftHandMiddle1			LeftHandMiddle2			LeftHandMiddle3			LeftHandMiddle3_End			LeftInHandRing			LeftHandRing1			LeftHandRing2			LeftHandRing3			LeftHandRing3_End			LeftInHandPinky			LeftHandPinky1			LeftHandPinky2			LeftHandPinky3			LeftHandPinky3_End			
		X1	Y1	Z1	X2	Y2	Z2	X3	Y3	Z3	X4	Y4	Z4	X5	Y5	Z5	X6	Y6	Z6	X7	Y7	Z7	X8	Y8	Z8	X9	Y9	Z9	X10	Y10	Z10	X11	Y11	Z11	X12	Y12	Z12	X13	Y13	Z13	X14	Y14	Z14	X15	Y15	Z15	X16	Y16	Z16	X17	Y17	Z17	X18	Y18	Z18	X19	Y19	Z19	X20	Y20	Z20	X21	Y21	Z21	X22	Y22	Z22	X23	Y23	Z23	X24	Y24	Z24	X25	Y25	Z25	X26	Y26	Z26	X27	Y27	Z27	X28	Y28	Z28	X29	Y29	Z29	X30	Y30	Z30	X31	Y31	Z31	X32	Y32	Z32	X33	Y33	Z33	X34	Y34	Z34	X35	Y35	Z35	X36	Y36	Z36	X37	Y37	Z37	X38	Y38	Z38	X39	Y39	Z39	X40	Y40	Z40	X41	Y41	Z41	X42	Y42	Z42	X43	Y43	Z43	X44	Y44	Z44	X45	Y45	Z45	X46	Y46	Z46	X47	Y47	Z47	X48	Y48	Z48	X49	Y49	Z49	X50	Y50	Z50	X51	Y51	Z51	X52	Y52	Z52	X53	Y53	Z53	X54	Y54	Z54	X55	Y55	Z55	X56	Y56	Z56	X57	Y57	Z57	X58	Y58	Z58	X59	Y59	Z59	X60	Y60	Z60	X61	Y61	Z61	X62	Y62	Z62	X63	Y63	Z63	X64	Y64	Z64	X65	Y65	Z65	X66	Y66	Z66	X67	Y67	Z67	X68	Y68	Z68	X69	Y69	Z69	X70	Y70	Z70	X71	Y71	Z71	X72	Y72	Z72	

267	1.108	4921.0129	906.651	56.2195	4936.146012717407	865.7276609389183	-16.203780675220685	4865.155185698749	457.2230321895214	-69.81478213843211	4952.80857816121	99.11739655342934	-187.26144489651085	4879.70948276492	19.46665903446052	-29.66285053659079	4912.419530286886	918.6824741424972	140.698891299257	4860.199337630069	518.2053358627969	250.6475740773813	4775.443587650629	88.11730865188562	292.738188170007	4656.0984879264615	-0.9948761229256684	173.42954614203904	4890.934831706589	1036.48962704245	4.519383536909017	4841.708046030713	1109.163867011623	-36.72472610933966	4784.602939421304	1180.0863201419368	-79.77185498787384	4721.493400713609	1239.876029550908	-121.00275308006782	4653.36011304667	1303.4127063713167	-164.34023339626418	4590.617859728327	1361.470050337189	-202.5504460913402	4465.850554874767	1453.5843868975553	-236.69489573313496	4677.459856215578	1269.1009377822106	-169.9156480659952	4652.465297161568	1204.3682260857324	-224.32251453410905	4658.6091688885845	1046.2785564257074	-119.97794749837767	4651.135081010927	989.986380685941	-90.19768282024913	4657.0169951797625	1003.1737878873329	-95.53308218258394	4658.302741660332	1003.5305975513695	-89.55259319475323	4659.104259579016	1001.5920540537322	-84.25328764461696	4659.6921433535745	998.1050248234242	-78.86495780572974	4657.765057247173	997.3144998123985	-92.80575990703312	4665.189234794156	997.0640115981947	-88.90203165295107	4667.445016290987	992.7729881749822	-81.64503363300076	4666.750116786598	989.6465621579587	-75.8681919163071	4664.760243663834	986.7494088982064	-70.23330643744356	4657.112976154196	991.1791836401275	-89.64018643310986	4664.002418945921	987.6174424120229	-84.12164180608072	4666.3501661938735	982.1212116383808	-75.79211133609044	4665.457199771871	977.958739462128	-68.62547986683626	4663.253377213792	974.5988632688403	-62.36408460746778	4656.493248632061	986.8784278857648	-87.54123567276741	4662.218590936826	980.0333516287873	-80.88438952675153	4664.137432212771	974.4162705154307	-73.21284183456983	4663.208402358063	969.9622879871681	-66.08152419002018	4661.104168701234	966.5951508964608	-60.09067570934842	4655.324263256868	981.7125550809573	-84.93653313558762	4659.95930558313	972.3415948162508	-77.35107257324249	4661.271790176885	966.5837791710284	-70.59474705248513	4660.485767378871	962.7255881451994	-65.09649021325961	4658.559383451215	959.3921144309973	-59.61885065185882	4675.028054692773	1296.4979044634636	-129.20985986891714	4688.1167212476375	1316.3573023101028	-42.27388806863442	4734.465695817973	1107.9003722326079	-61.29807873794408	4721.042834962031	967.745817346312	-50.416616685017985	4712.475579911895	979.7561791637369	-52.87062114683692	4706.486266435691	974.3545542106864	-58.385286198040916	4703.454084250715	967.8068477692816	-62.79907478481016	4701.900481639181	959.9649512643467	-66.96916502237566	4715.75998908914	971.874695868566	-55.08819203025035	4711.961022308193	963.5039065141558	-64.62722222056082	4709.380178247686	952.317389876	-71.6018039606564	4707.177321843619	945.3389272206781	-74.91526573817681	4704.950418869985	939.5467953258798	-76.96802032011352	4718.992494119385	964.3337145073606	-56.33165074657244	4717.035541900985	952.0917055501455	-66.30822632783844	4714.658249010234	938.9104309524322	-74.05243136962193	4712.211210525254	930.023511271581	-78.11408394818663	4709.876966655907	923.4585190477968	-80.39132161519002	4721.379253096375	959.2541792785723	-56.96896513925026	4721.715010807668	943.9746041310125	-66.46972878702603	4720.09459615113	931.5085688418269	-73.34036240801552	4717.974078936328	922.4174852980968	-77.32227388594853	4715.892958833395	915.9988231340956	-79.49383797355789	4724.192521906069	953.3699967835931	-57.40957102727961	4726.253923690449	935.8413486171082	-66.40581548341792	4725.659454539604	924.4008614807047	-72.05450707811355	4724.4528579429725	917.064431168533	-75.03001200753718	4722.805062479888	910.9726005750448	-76.99457037873925
268	1.113	4921.0129	906.651	56.2195	4935.815502774172	865.5836829170693	-16.391449962685375	4865.0134913476495	457.00244991176123	-69.77313186252087	4953.377093448009	99.07759925894847	-187.52236574607062	4880.293192225467	19.46406434547716	-29.89628727800252	4912.750155041725	918.8252737742235	140.88224453379883	4860.4343371822215	518.3727696757453	250.86165653624573	4775.445249856512	88.26584547020603	292.67082789654904	4656.168813180384	-0.9219878797844266	173.34513392830058	4890.942435147754	1036.4995478646763	4.545973170207098	4841.672445563281	1109.18829644422	-36.62868278939278	4784.519157704329	1180.1284695414895	-79.59001291441989	4721.358317411397	1239.9373213863246	-120.71679557482395	4653.171770487481	1303.49519303553	-163.94126843551254	4590.388129390378	1361.5789349706097	-202.0441762799313	4465.640019884071	1453.7866462301079	-236.0204442107393	4677.121066451781	1269.0622804654604	-169.52882382730482	4651.60637714063	1204.2093286894872	-223.28074314053197	4658.164311832783	1046.0274661476144	-118.59245944362513	4650.489741680971	990.4294607705649	-90.4589397742834	4656.967216756338	1004.2993317814961	-95.20286891251892	4659.134816455209	1004.8556496721872	-89.44228627192135	4660.467909420272	1002.9795380459738	-84.44053673882712	4661.428327133206	999.4791070465185	-79.42380838325673	4657.425892250416	998.2629053219879	-92.89685145332581	4665.220232881327	998.3515139857824	-89.45110417062037	4667.990633781693	994.1121920499158	-82.73775742536378	4667.795271758466	990.9527671635826	-77.2691993103962	4666.340010910216	987.9843607639193	-71.86944364793749	4656.5486276783595	991.8989447458713	-90.11881022188695	4663.677241380242	988.5443271315818	-85.2565189459142	4666.555948498748	983.073013813204	-77.57014953763722	4666.250976262595	978.8556140271787	-70.79941046072302	4664.624980082449	975.4104253911413	-64.80693728351798	4655.757286370242	987.4294370384683	-88.28071519084236	4661.539001419196	980.6277043602248	-82.43479077778555	4663.88901808061	974.9998039631934	-75.37383742742561	4663.510368393426	970.475559685759	-68.65094882107749	4661.94148239556	967.0200190450527	-62.92554077411481	4654.404012419403	982.047912433694	-85.97323345263993	4658.966945248573	972.5886945199552	-79.31073777969823	4660.575159239836	966.7712529864157	-73.11785174780296	4660.166621700133	962.837160733221	-67.95354202307647	4658.70067720045	959.4111882927418	-62.73177950624074	4675.034369057862	1296.6905234097856	-128.8804840060443	4688.721774337979	1317.2499297151512	-42.08979088517585	4734.909636898295	1108.691839278739	-60.234440885682574	4720.042619837135	968.2716984445665	-50.46065979778442	4711.814869022636	980.5784473491848	-52.546869019255844	4705.728610781506	975.2515853410704	-57.17978563737146	4702.5338119904745	968.7194337488896	-60.95164168047947	4700.763283873026	960.8592707879692	-64.56272718322174	4714.806289089071	972.608298061756	-54.666693447390855	4710.652961162685	964.3544891113759	-63.235095258505716	4707.735861645527	953.1691462971478	-69.34217777805245	4705.379711696577	946.1680367913734	-72.1089368295388	4703.063537030675	940.3413919720845	-73.70420832015836	4717.788198805218	964.9601293536963	-55.85897050936423	4715.350091578724	952.7742647191532	-64.86119484992693	4712.573849241974	939.5796480493377	-71.65494103088926	4709.926498430908	930.65838868715	-75.0551717895932	4707.487103705977	924.0522217535936	-76.83094313604815	4720.007172799803	959.8024801683326	-56.486468687093684	4719.766708624832	944.5071667036308	-65.11010402940317	4717.766587943592	932.0144613476622	-71.14990263070152	4715.435870510367	922.8822667465588	-74.49253961811384	4713.247834240348	916.4211047423115	-76.19199213021334	4722.635608358678	953.820157391624	-56.93147717211379	4724.055171252541	936.2186195163738	-65.1309090302175	4723.10926630796	924.7333743206971	-70.114349550971	4721.72642894384	917.3556372623682	-72.62358964256327	4719.970732256901	911.2196438493999	-74.16994816596346
269	1.117	4921.0129	906.651	56.2195	4935.4582398229295	865.4298091127216	-16.578170965096422	4864.855004953077	456.7719322749721	-69.74141955107835	4953.905844742416	99.0180055021505	-187.7744246924562	4880.844228703859	19.432026686954792	-30.122507922526225	4913.105437408709	918.9776834174156	141.06527390861586	4860.7029248566405	518.5478844405452	251.07607165051655	4775.461962046749	88.42520577039846	292.59010525576167	4656.2539669089465	-0.8381392304116992	173.24721472157952	4890.960119955469	1036.5111134823599	4.56989602456667	4841.646852023852	1109.2151086545891	-36.53413350813904	4784.442678113785	1180.1720973924182	-79.40792252045695	4721.223802070706	1239.995268310076	-120.4277496488727	4652.9770996290135	1303.5687529483532	-163.537048118699	4590.146746691216	1361.6744282310306	-201.53111257804096	4465.419282361614	1453.9688368033885	-235.36026595004265	4676.779861825209	1269.0165490951165	-169.1399143563283	4650.994799056603	1204.2886671208269	-222.3664750565951	4657.966758841668	1045.9965748765244	-117.29437440451161	4649.780573347869	990.9856171978137	-90.75345191881779	4656.87905790305	1005.5455218552102	-95.03171670889257	4659.852186549291	1006.2715909804934	-89.58544934275312	4661.652490739113	1004.431842907522	-84.9280699288734	4662.922193850691	1000.891705172855	-80.30577387451444	4657.017362076066	999.315533975918	-93.08939632815341	4665.102059451109	999.7010254699558	-90.14119301662832	4668.2948409631545	995.4731061759782	-84.00588317688205	4668.536851632599	992.2572635760247	-78.88310027777459	4667.561498037821	989.1993230867816	-73.76037565582007	4655.885453621461	992.7093401455471	-90.64634331824729	4663.159472809994	989.5133247340136	-86.4504709114317	4666.4648147079515	984.0212850992618	-79.43773131946793	4666.6710739618175	979.7199024620882	-73.10473246630805	4665.562189809613	976.1690092345108	-67.42538361867702	4654.904004751843	988.0626247362079	-89.03078661661189	4660.642835499329	981.2536083052908	-83.9710893041942	4663.329486630687	975.5734743685715	-77.54006428120817	4663.425255808217	970.9500761742514	-71.26213465215719	4662.33372203439	967.3865477934072	-65.84191070391007	4653.345205932937	982.4563934450408	-86.97667773279576	4657.732824713488	972.8571135093539	-81.18685550110293	4659.5558607493085	966.9445589740241	-75.5617317340174	4659.466885368765	962.9123671690204	-70.7526161842755	4658.408557413108	959.375900576095	-65.81883048576452	4675.034957733213	1296.8761764473734	-128.5440084818871	4689.328636996492	1318.1329899969294	-41.89749369769982	4735.419177397438	1109.4713042558385	-59.19576850550169	4718.739935111173	968.7470785168961	-50.451837604610006	4710.855198233063	981.389294976952	-52.202497793356635	4704.757793640407	976.1428746162571	-55.94989762287389	4701.4689362408	969.6235661520258	-59.06290667030366	4699.54617141632	961.7371731536537	-62.088661747812054	4713.580317572345	973.311911782518	-54.17545624518014	4709.1740068423405	965.1741538948181	-61.69812765640468	4706.01901900009	953.9800242926774	-66.88999701593687	4703.570958085835	946.9504654895188	-69.1003551854671	4701.216471686018	941.0847681277302	-70.24358381146939	4716.333381870626	965.5380139106583	-55.28051497074243	4713.524757619818	953.397360515075	-63.21564227426392	4710.459479702407	940.17607759698	-69.00235854227847	4707.687108409207	931.2122999258781	-71.72730493353744	4705.198923134047	924.5594183974828	-73.00651151587734	4718.397145440227	960.2892255121418	-55.87449896117889	4717.689929838849	944.9572172805393	-63.51686351262252	4715.408365057561	932.4237356731794	-68.67206214837293	4712.9413790850895	923.2412172736036	-71.35968604487141	4710.700038762402	916.7317192302044	-72.59051396956067	4720.85391623994	954.1933767652698	-56.29999017163364	4721.739510012854	936.4904130529021	-63.59180117000974	4720.5242167286415	924.9453160994038	-67.86043892355504	4719.020691400765	917.5177152693869	-69.8887907305096	4717.205521342836	911.3313317792678	-71.01822913494878
270	1.121	4921.0129	906.651	56.2195	4935.075125235578	865.2664521773397	-16.763412352042316	4864.680159461517	456.5319944354974	-69.71866618512225	4954.394852350862	98.93905591958979	-188.01678077417967	4881.362449383333	19.37074188841886	-30.340883419039734	4913.484497862389	919.1393031153063	141.24747957271663	4861.0059553033525	518.730313891951	251.29118921851662	4775.494512493678	88.59521198950237	292.49705893800837	4656.354976462962	-0.7435520702120976	173.1366183897097	4890.987766920653	1036.5242532104346	4.590991670241564	4841.631483533531	1109.244289558499	-36.44155150268595	4784.374171860435	1180.217359156649	-79.2264313128327	4721.091101230878	1240.050457326623	-120.13690651288954	4652.777924432828	1303.634402600602	-163.1293450730061	4589.8960402285975	1361.7579309475634	-201.01347233692906	4465.19029436672	1454.1315608193731	-234.71742751097284	4676.438334298376	1268.964812621584	-168.75074107225234	4650.617042463525	1204.5897163497916	-221.57708499657315	4657.990676333036	1046.1814640202092	-116.07669513286724	4648.990578631271	991.658835399417	-91.03641634018548	4656.726495449955	1006.9096883480058	-94.97870261156756	4660.419298249936	1007.7758671604618	-89.9328603742347	4662.617355101849	1005.9476654555554	-85.65918337038957	4664.130167219393	1002.3435605655707	-81.44645687137012	4656.518585056763	1000.472907017677	-93.33743307177726	4664.811707759791	1001.1138269254101	-90.91518564482239	4668.330797600182	996.8596508327447	-85.38075679921776	4668.943248972483	993.5657585835885	-80.6342416754041	4668.38754376495	990.4015805573409	-75.82477513752954	4655.106729217513	993.6141491811982	-91.17240256845658	4662.432564871391	990.5307171876575	-87.63984749475675	4666.056585804522	984.9756176509743	-81.31806036834543	4666.691827486972	980.5635591413272	-75.4559405897076	4666.033392974638	976.888395574388	-70.12758097109946	4653.919703655294	988.7840391545574	-89.73825247786219	4659.519274972067	981.9212841314924	-85.42582796239057	4662.44541917464	976.1508233499541	-79.632063500102	4662.9346533950575	971.401889048133	-73.82693362586919	4662.257025683501	967.7126156840865	-68.7455419506314	4652.137426871654	982.9467465956037	-87.89055056791233	4656.251306356395	973.161046496932	-82.90818970832296	4658.20704180798	967.1212129154267	-77.84475441561759	4658.376483370576	962.9708741431614	-73.40536197685996	4657.66836200998	959.3077205835775	-68.78603443298464	4675.030978184226	1297.0555356935677	-128.20181004408397	4689.937413063249	1319.0048192124973	-41.697089093619404	4735.9999880226915	1110.2365435716347	-58.18193317063862	4717.147439256297	969.1759249050617	-50.36208110808677	4709.605790960074	982.191166355311	-51.81222338153927	4703.582873566579	977.0317006506258	-54.67903200673072	4700.269679710601	970.5235388527223	-57.12292371035295	4698.261431606671	962.6041701105044	-59.543066005875524	4712.095628932479	973.9892847776623	-53.5912225009694	4707.543560876468	965.9684153329425	-60.004087300651534	4704.25279294616	954.757374092471	-64.2425349898558	4701.774853940158	947.6945468069549	-65.8923736424168	4699.432423800796	941.7859645329534	-66.59339520905898	4714.644857182192	966.0722643504743	-54.57433329413843	4711.5838201624665	953.9682333298061	-61.361078489920345	4708.3439135221815	940.7091097279365	-66.09470509449098	4705.522795228837	931.6958917163602	-68.13730275882799	4703.041627802136	924.991563754545	-68.92968811668482	4716.568151353985	960.7200747964124	-55.11173465757441	4715.512264306597	945.3331701670799	-61.67946677376017	4713.0518413372365	932.7468259827184	-65.90558633048394	4710.523681971143	923.5060607370339	-67.92908185040805	4708.28223341645	916.9431869987326	-68.6993560991302	4718.868652196083	954.4961663301757	-55.494293804052035	4719.337460755692	936.6662831916701	-61.77783660086348	4717.938887761272	925.0480742097361	-65.28970239992528	4716.371365517383	917.5630977763633	-66.82744453822663	4714.544947848001	911.3208626932343	-67.54534401824324
